<?xml version="1.0" encoding="utf-8"?>
<!-- Generator: Adobe Illustrator 22.1.0, SVG Export Plug-In . SVG Version: 6.00 Build 0)  -->
<svg version="1.1" id="Capa_1" xmlns="http://www.w3.org/2000/svg" xmlns:xlink="http://www.w3.org/1999/xlink" x="0px" y="0px"
	 viewBox="0 0 139 174" style="enable-background:new 0 0 139 174;" xml:space="preserve">
<style type="text/css">
	.st0{opacity:0.5;enable-background:new    ;}
	.st1{fill:url(#SVGID_1_);}
	.st2{fill:url(#SVGID_2_);}
	.st3{fill:url(#SVGID_3_);}
	.st4{fill:url(#SVGID_4_);}
	.st5{fill:url(#SVGID_5_);}
	.st6{fill:#999999;}
	.st7{fill:#5B318C;}
</style>
<g>
	<path class="st0" d="M105.3,118.5L105.3,118.5L105.3,118.5z"/>
	<g>
		
			<linearGradient id="SVGID_1_" gradientUnits="userSpaceOnUse" x1="123.95" y1="162.9338" x2="123.95" y2="57.0901" gradientTransform="matrix(1 0 0 -1 0 176)">
			<stop  offset="0.4378" style="stop-color:#5B318D"/>
			<stop  offset="0.5016" style="stop-color:#5C3891"/>
			<stop  offset="0.5939" style="stop-color:#614B9D"/>
			<stop  offset="0.7037" style="stop-color:#6A6AAF"/>
			<stop  offset="0.8257" style="stop-color:#7596C9"/>
			<stop  offset="0.9459" style="stop-color:#82C8E6"/>
		</linearGradient>
		<path class="st1" d="M130.9,110.3c2.2-3.4,2.8-7.4,2.8-7.4c-1.7,4.5-4.8,7.6-8.1,9.7c-2.9,1.8-7,3.6-12.7,4.6H135L130.9,110.3z"/>
		
			<linearGradient id="SVGID_2_" gradientUnits="userSpaceOnUse" x1="50.7" y1="162.9338" x2="50.7" y2="57.0901" gradientTransform="matrix(1 0 0 -1 0 176)">
			<stop  offset="0.4378" style="stop-color:#5B318D"/>
			<stop  offset="0.5016" style="stop-color:#5C3891"/>
			<stop  offset="0.5939" style="stop-color:#614B9D"/>
			<stop  offset="0.7037" style="stop-color:#6A6AAF"/>
			<stop  offset="0.8257" style="stop-color:#7596C9"/>
			<stop  offset="0.9459" style="stop-color:#82C8E6"/>
		</linearGradient>
		<path class="st2" d="M8.4,115.3l-1.2,2h87c-5.2-0.8-11.1-2.1-17.6-4.3C38.8,100.2,20.6,107.1,8.4,115.3z"/>
		<g>
			
				<linearGradient id="SVGID_3_" gradientUnits="userSpaceOnUse" x1="71" y1="162.9338" x2="71" y2="57.0901" gradientTransform="matrix(1 0 0 -1 0 176)">
				<stop  offset="0.4378" style="stop-color:#5B318D"/>
				<stop  offset="0.5016" style="stop-color:#5C3891"/>
				<stop  offset="0.5939" style="stop-color:#614B9D"/>
				<stop  offset="0.7037" style="stop-color:#6A6AAF"/>
				<stop  offset="0.8257" style="stop-color:#7596C9"/>
				<stop  offset="0.9459" style="stop-color:#82C8E6"/>
			</linearGradient>
			<path class="st3" d="M53,57.7l11.7,28.9l10.9-25.9c-0.4-0.7-1-1.2-1.7-1.7c-0.8-0.4-1.8-0.7-3.2-0.7v-0.6h6.2H88h10L71,13.4
				L44,57.7H53z"/>
			
				<linearGradient id="SVGID_4_" gradientUnits="userSpaceOnUse" x1="28.5" y1="162.9338" x2="28.5" y2="57.0901" gradientTransform="matrix(1 0 0 -1 0 176)">
				<stop  offset="0.4378" style="stop-color:#5B318D"/>
				<stop  offset="0.5016" style="stop-color:#5C3891"/>
				<stop  offset="0.5939" style="stop-color:#614B9D"/>
				<stop  offset="0.7037" style="stop-color:#6A6AAF"/>
				<stop  offset="0.8257" style="stop-color:#7596C9"/>
				<stop  offset="0.9459" style="stop-color:#82C8E6"/>
			</linearGradient>
			<path class="st4" d="M45.5,92.4c0.6-0.6,0.9-1.3,1.1-2.2c0.2-0.9,0.3-2.3,0.3-4.1V66.2c0-0.8,0-1.6-0.1-2.4
				c-0.1-1.3-0.3-2.3-0.6-2.9c-0.5-0.8-1.1-1.5-1.9-1.9c-0.3-0.1-0.6-0.3-1-0.4L30.2,80.4c6.1,1,9.5,6.4,9.5,6.4
				C30.8,85.6,22.5,90,22.5,90c-5.7,3.2-12.4,11.1-12.4,11.1s3-2.8,8-4.9C21.9,94.3,31,90.5,45.5,92.4
				C45.4,92.5,45.5,92.5,45.5,92.4z"/>
			
				<linearGradient id="SVGID_5_" gradientUnits="userSpaceOnUse" x1="87.8071" y1="162.9338" x2="87.8071" y2="57.0901" gradientTransform="matrix(1 0 0 -1 0 176)">
				<stop  offset="0.4378" style="stop-color:#5B318D"/>
				<stop  offset="0.5016" style="stop-color:#5C3891"/>
				<stop  offset="0.5939" style="stop-color:#614B9D"/>
				<stop  offset="0.7037" style="stop-color:#6A6AAF"/>
				<stop  offset="0.8257" style="stop-color:#7596C9"/>
				<stop  offset="0.9459" style="stop-color:#82C8E6"/>
			</linearGradient>
			<path class="st5" d="M126.7,94.7c0,0-1.3,2-4.2,3.8c-21,12.8-36.1,3.8-36.1,3.8c11.8,2.2,18.8-0.6,23.2-4.2
				c2.3-10.2-5.9-14.5-5.9-14.5c7.2,1.7,10.4,6.2,11.5,8.1c0.7-1,1.3-1.9,1.9-2.5l-4.2-7.2l0,0l-1.1-1.8c0,0,0,0,0.1,0L99,59.4
				l0.6,7.1L99,66.6c-0.5-1.4-0.9-2.4-1.2-3.1c-0.8-1.6-2-2.8-3.6-3.6c-0.9-0.5-1.9-0.9-3.1-1.1c-1.2-0.2-2.7-0.3-4.8-0.3H86
				c-0.3,0.1-0.5,0.1-0.7,0.2c-0.6,0.2-1.2,0.6-1.7,1.1c-0.4,0.4-0.7,0.8-0.9,1.3c-0.2,0.5-0.3,1-0.4,1.7c-0.1,0.9-0.2,2-0.2,3.3
				v8.3h1.1c3.2,0,5.5-0.7,6.9-2.1c0.6-0.6,1.1-1.3,1.4-2.2c0.3-0.8,0.5-1.9,0.6-3.3h0.6l-0.2,16.4h-0.6c-0.2-1.8-0.5-3.3-1-4.3
				s-1.2-1.8-2.2-2.4c-0.7-0.5-1.6-0.8-2.7-1s-2.4-0.3-4.1-0.3V86c0,1.9,0.1,3.2,0.3,4.1c0.2,0.9,0.6,1.6,1.2,2.2
				c1,1,2.4,1.5,4.2,1.6v0.6l0,0H70.7l0,0V94l0,0c0.9,0,1.6-0.2,2.2-0.3c0.1,0,0.2,0,0.2-0.1c0.1,0,0.1-0.1,0.2-0.1
				c0.6-0.2,1.1-0.6,1.6-1.1c0.1-0.1,0.3-0.3,0.4-0.5c0.3-0.5,0.6-1.1,0.7-1.8c0.2-1,0.3-2.3,0.3-4V66.2c0-1.2-0.1-2.4-0.2-3.6v-0.1
				L62.4,94.6h-0.6L48,62.5v23.7c0,1.9,0.1,3.2,0.3,4.1s0.6,1.6,1.1,2.2c0.4,0.5,1,0.8,1.5,1.1c0.6,0.1,1.2,0.3,1.9,0.4
				c0.3,0,0.5,0.1,0.8,0.1v0.1c5.7,1.5,12.1,3.9,19.1,7.5c35.4,18,48.7,5.2,52.6,1.9C129.5,99.1,126.7,94.7,126.7,94.7z M106.1,89.4
				c0,0,3.3,9.5-6.9,11.6c0,0-6.2,0.9-7.8-0.6C91.5,100.4,103.8,101.2,106.1,89.4z"/>
		</g>
	</g>
	<g>
		<path class="st6" d="M58.6,149.1h7.5v0.8h-6.5v5.5H65v0.8h-5.5v6.6h-1L58.6,149.1L58.6,149.1z"/>
		<path class="st6" d="M68.4,149.6c0-0.5,0.4-0.8,0.8-0.8c0.5,0,0.8,0.3,0.8,0.8s-0.4,0.8-0.8,0.8C68.8,150.4,68.4,150.1,68.4,149.6
			z M68.7,152.8h0.9v10h-0.9V152.8z"/>
		<path class="st6" d="M74.2,153.6h-1.6v-0.7l1.6-0.1l0.1-2.9h0.8v2.9H78v0.8h-2.9v6.5c0,1.3,0.3,2.1,1.7,2.1c0.4,0,0.9-0.1,1.3-0.3
			l0.3,0.8c-0.6,0.2-1.2,0.4-1.6,0.4c-1.9,0-2.5-1.2-2.5-3v-6.5H74.2z"/>
		<path class="st6" d="M80.8,152.8h0.8l0.1,1.5h0.1c1-1,2.1-1.8,3.4-1.8c2.1,0,3,1.3,3,3.8v6.4h-0.9v-6.3c0-2.1-0.7-3.1-2.3-3.1
			c-1.2,0-2,0.6-3.3,1.9v7.5h-0.9C80.8,162.7,80.8,152.8,80.8,152.8z"/>
		<path class="st6" d="M95.9,152.6c2.4,0,3.8,1.7,3.8,4.6c0,0.3,0,0.5,0,0.8h-7.2c0,2.5,1.5,4.3,3.8,4.3c1.1,0,1.9-0.4,2.7-0.9
			l0.4,0.7c-0.8,0.5-1.7,1-3.1,1c-2.6,0-4.6-2-4.6-5.2C91.5,154.6,93.7,152.6,95.9,152.6z M98.8,157.3c0-2.6-1.1-3.9-2.9-3.9
			c-1.7,0-3.2,1.5-3.4,3.9H98.8z"/>
		<path class="st6" d="M102.1,161c0.9,0.7,1.8,1.3,3.2,1.3c1.6,0,2.4-0.9,2.4-2c0-1.3-1.3-1.8-2.4-2.2c-1.5-0.5-3.2-1.1-3.2-2.9
			c0-1.5,1.1-2.7,3.2-2.7c1.1,0,2.1,0.4,2.9,1l-0.5,0.6c-0.7-0.5-1.4-0.9-2.4-0.9c-1.5,0-2.3,0.9-2.3,1.8c0,1.1,1.2,1.6,2.4,2
			c1.6,0.6,3.3,1.1,3.3,3.1c0,1.5-1.2,2.8-3.4,2.8c-1.5,0-2.8-0.6-3.7-1.4L102.1,161z"/>
		<path class="st6" d="M111,161c0.9,0.7,1.8,1.3,3.2,1.3c1.6,0,2.4-0.9,2.4-2c0-1.3-1.3-1.8-2.4-2.2c-1.5-0.5-3.2-1.1-3.2-2.9
			c0-1.5,1.1-2.7,3.2-2.7c1.1,0,2.1,0.4,2.9,1l-0.5,0.6c-0.7-0.5-1.4-0.9-2.4-0.9c-1.5,0-2.3,0.9-2.3,1.8c0,1.1,1.2,1.6,2.4,2
			c1.6,0.6,3.3,1.1,3.3,3.1c0,1.5-1.2,2.8-3.4,2.8c-1.5,0-2.8-0.6-3.7-1.4L111,161z"/>
	</g>
	<g>
		<path class="st7" d="M120.2,133c-0.1,0-0.2,0-0.3,0c-0.1,0-0.2,0.1-0.3,0.2c-0.2,0.3-0.6,0.8-1,1.4c-0.4,0.6-0.9,1.3-1.5,2.1
			s-1.2,1.5-1.8,2.3c-0.7,0.8-1.3,1.5-2,2.1s-1.3,1.2-2,1.6c-0.6,0.4-1.2,0.6-1.8,0.6c-0.6,0-1.1-0.1-1.4-0.4
			c-0.3-0.3-0.6-0.6-0.8-1.1c-0.2-0.5-0.2-1-0.2-1.6s0.1-1.3,0.3-2c1.7-1.4,3.4-2.8,4.9-4.4c1.6-1.5,2.9-3,4.1-4.5s2.1-2.9,2.8-4.2
			c0.7-1.3,1-2.4,1-3.4c0-0.5-0.1-0.8-0.2-1.1c-0.1-0.3-0.3-0.5-0.5-0.7s-0.5-0.3-0.7-0.4c-0.3-0.1-0.5-0.1-0.8-0.1
			c-0.9,0-1.7,0.2-2.6,0.7s-1.7,1.1-2.5,1.9s-1.6,1.8-2.4,2.8c-0.8,1.1-1.5,2.2-2.1,3.4c-0.7,1.2-1.3,2.4-1.8,3.6
			c-0.5,1.2-1,2.4-1.4,3.5c-0.3,0.9-0.6,1.7-0.8,2.5c-0.3,0.3-0.5,0.7-0.8,1c-0.6,0.8-1.3,1.5-1.9,2.1s-1.1,1.2-1.6,1.6
			c-0.5,0.4-0.9,0.6-1.2,0.6c-0.4,0-0.6-0.2-0.5-0.6c0-0.4,0.2-0.9,0.5-1.4c0.3-0.6,0.7-1.2,1.1-1.9s0.9-1.3,1.3-1.9
			c0.4-0.6,0.8-1.1,1.1-1.5c0.3-0.4,0.5-0.6,0.5-0.7c0-0.1-0.1-0.1-0.2-0.2c-0.1-0.1-0.2-0.2-0.4-0.2c-0.2-0.1-0.3-0.2-0.5-0.2
			c-0.2-0.1-0.3-0.1-0.5-0.2c0.2-0.5,0.3-1,0.3-1.4c0-0.5,0-0.9-0.1-1.3c-0.1-0.4-0.2-0.7-0.5-1c-0.2-0.3-0.5-0.5-0.8-0.7
			s-0.8-0.2-1.3-0.2c-1,0-1.9,0.2-2.8,0.6c-0.9,0.4-1.7,0.9-2.5,1.5s-1.5,1.4-2.2,2.2c-0.5,0.7-1,1.3-1.4,2c-0.3,0.4-0.7,0.8-1,1.3
			c-0.5,0.6-1,1.2-1.5,1.9c-0.5,0.6-1,1.2-1.6,1.8c-0.5,0.6-1,1.1-1.5,1.5s-0.9,0.8-1.3,1c-0.4,0.3-0.7,0.4-1,0.4
			c-0.6,0-1-0.2-1.1-0.7s0-1.1,0.2-1.9c0.3-0.8,0.7-1.7,1.2-2.7s1.2-2.1,1.9-3.3c0.7-1.1,1.5-2.3,2.2-3.5c0.8-1.2,1.6-2.3,2.3-3.4
			c1.6-0.2,3.1-0.4,4.6-0.7c1.4-0.3,2.7-0.6,3.8-0.9c1.1-0.3,1.9-0.6,2.6-0.9c0.6-0.3,0.9-0.5,0.9-0.6s-0.1-0.2-0.4-0.3
			c-0.2,0-0.5-0.1-0.8-0.1c-0.1,0-0.4,0.1-0.8,0.2s-1,0.3-1.7,0.5c-0.8,0.2-1.7,0.4-2.8,0.5c-1.1,0.2-2.5,0.3-4.1,0.4
			c0.8-1.2,1.5-2.3,2.1-3.2c0.5-0.9,0.8-1.4,0.8-1.7c0-0.4-0.1-0.8-0.4-1.2c-0.2-0.4-0.5-0.7-0.8-0.9c-0.3-0.2-0.6-0.3-0.8-0.4
			c-0.2,0-0.4,0.1-0.4,0.4c0,0.2-0.1,0.5-0.3,0.9c-0.2,0.4-0.5,1-0.9,1.6s-0.8,1.3-1.3,2.1c-0.5,0.8-1.1,1.6-1.6,2.5H86
			c-0.3,0-0.6,0-0.9,0s-0.5,0-0.8,0c-1.2-0.1-2.2-0.2-3-0.5c-0.7-0.2-1.3-0.5-1.7-0.7c-0.4-0.2-0.7-0.5-0.9-0.6
			c-0.2-0.2-0.3-0.3-0.4-0.3c-0.2,0-0.3,0.1-0.6,0.2c-0.2,0.1-0.3,0.4-0.3,0.7c0,0.4,0.1,0.7,0.3,1.1c0.2,0.4,0.6,0.7,1.1,1
			c0.6,0.3,1.3,0.6,2.3,0.7c1,0.2,2.3,0.3,4,0.3c-0.9,1.3-1.7,2.7-2.6,4c-0.2,0.4-0.4,0.7-0.7,1c-0.2,0.3-0.4,0.6-0.7,0.9
			c-0.5,0.6-1,1.3-1.5,2.1c-0.6,0.8-1.2,1.5-1.8,2.3c-0.6,0.8-1.3,1.5-1.9,2.1s-1.1,1.2-1.6,1.6c-0.5,0.4-0.9,0.6-1.2,0.6
			c-0.3,0-0.5-0.1-0.6-0.3c0-0.2,0-0.5,0.2-0.9s0.5-0.9,0.8-1.4c0.4-0.5,0.8-1.1,1.2-1.7c0.4-0.6,0.9-1.2,1.3-1.9
			c0.4-0.6,0.8-1.3,1.2-1.9c0.4-0.6,0.7-1.2,0.9-1.8c0.2-0.6,0.4-1.1,0.4-1.5c0-0.7-0.1-1.2-0.4-1.6c-0.3-0.4-0.7-0.6-1.3-0.6
			c-0.6,0-1.1,0.2-1.8,0.5c-0.6,0.3-1.3,0.8-1.9,1.3s-1.2,1.1-1.8,1.7c-0.6,0.6-1.1,1.2-1.5,1.7c-0.5,0.5-0.8,1-1.1,1.3
			s-0.4,0.5-0.5,0.5s0-0.2,0.2-0.6c0.2-0.4,0.4-0.8,0.7-1.4c0.3-0.5,0.5-1.1,0.7-1.7c0.2-0.6,0.3-1.1,0.3-1.5s-0.1-0.8-0.4-1
			c-0.2-0.3-0.5-0.5-0.8-0.6s-0.5-0.2-0.8-0.2c-0.2,0-0.4,0-0.4,0.1c0,0.6-0.2,1.3-0.5,2.2c-0.1,0.3-0.3,0.7-0.4,1.1
			c-0.2,0.3-0.5,0.7-0.9,1.3c-0.5,0.7-1.1,1.4-1.8,2.3c-0.7,0.8-1.4,1.7-2.2,2.6c-0.8,0.9-1.5,1.7-2.3,2.4s-1.5,1.3-2.2,1.8
			s-1.3,0.7-1.9,0.7c-0.5,0-0.9-0.2-1.2-0.5c-0.2-0.4-0.4-0.8-0.4-1.4c0-0.6,0.1-1.3,0.3-2.1s0.5-1.6,0.8-2.4c1.2,0,2.3-0.2,3.3-0.6
			c1-0.4,1.9-0.8,2.7-1.4c0.8-0.6,1.4-1.2,1.8-1.9c0.4-0.7,0.7-1.5,0.7-2.3c0-0.6-0.2-1-0.5-1.4s-0.9-0.5-1.8-0.5
			c-1,0-1.9,0.2-2.8,0.6c-0.9,0.4-1.7,0.9-2.5,1.5s-1.5,1.3-2.2,2.1s-1.2,1.6-1.7,2.5c-0.5,0.8-0.8,1.7-1.1,2.5s-0.4,1.5-0.4,2.2
			c0,0.8,0.1,1.4,0.4,2c0.3,0.5,0.6,1,0.9,1.3c0.4,0.3,0.8,0.6,1.2,0.7c0.4,0.2,0.8,0.2,1.2,0.2c0.9,0,1.8-0.2,2.7-0.7
			s1.8-1.1,2.7-1.9c0.9-0.8,1.7-1.6,2.5-2.5s1.6-1.8,2.3-2.7c0.1-0.1,0.1-0.1,0.2-0.2c-0.2,0.3-0.4,0.6-0.5,0.9
			c-0.6,1.1-1.2,2.1-1.7,3s-1,1.6-1.3,2.2c-0.4,0.6-0.5,0.9-0.5,0.9s0,0.1,0.1,0.2c0.1,0.1,0.2,0.2,0.4,0.4c0.2,0.1,0.3,0.2,0.5,0.3
			s0.4,0.1,0.7,0.1c0.1,0,0.4-0.2,0.7-0.6c0.4-0.4,0.8-0.9,1.3-1.6c0.5-0.6,1.1-1.4,1.7-2.2s1.3-1.7,2-2.5c0.7-0.9,1.3-1.7,2-2.5
			s1.3-1.6,2-2.2c0.6-0.6,1.2-1.2,1.7-1.6c0.5-0.4,1-0.6,1.3-0.6c0.4,0,0.6,0.2,0.5,0.5c-0.1,0.4-0.4,0.8-0.8,1.4
			c-0.4,0.6-0.9,1.3-1.5,2.1s-1.2,1.6-1.7,2.4c-0.6,0.8-1,1.7-1.4,2.5s-0.6,1.6-0.6,2.4c0,0.5,0.1,0.9,0.2,1.3
			c0.1,0.3,0.3,0.6,0.6,0.9c0.3,0.3,0.7,0.4,1.3,0.4c0.5,0,1.1-0.2,1.7-0.7c0.7-0.5,1.3-1.1,2.1-1.8c0.7-0.7,1.5-1.6,2.2-2.5
			c0.4-0.4,0.7-0.9,1.1-1.3c-0.1,0.2-0.2,0.4-0.3,0.6c-0.4,1-0.7,1.7-0.7,2.3c0,0.3,0,0.7,0.1,1.1c0.1,0.4,0.3,0.8,0.5,1.1
			c0.3,0.4,0.6,0.7,1,0.9s1,0.4,1.6,0.4s1.2-0.2,1.9-0.7c0.7-0.5,1.5-1.1,2.2-1.8c0.8-0.7,1.5-1.6,2.3-2.5c0.4-0.4,0.7-0.8,1-1.3
			c-0.2,0.8-0.4,1.5-0.4,2.1c0,0.8,0.1,1.4,0.3,1.9c0.2,0.5,0.5,1,0.9,1.3s0.7,0.6,1.2,0.7c0.4,0.1,0.8,0.2,1.2,0.2
			c0.5,0,1-0.1,1.4-0.4c0.5-0.3,0.9-0.6,1.2-0.9c0.4-0.4,0.8-0.8,1.1-1.3c-0.1,0.5,0,1,0.1,1.3s0.3,0.6,0.5,0.9
			c0.3,0.3,0.7,0.4,1.3,0.4c0.5,0,1-0.2,1.6-0.7s1.3-1.1,2-1.8s1.5-1.6,2.2-2.5c0.2-0.3,0.5-0.6,0.7-0.9c-0.1,0.4-0.1,0.7-0.1,1
			c0,0.6,0,1.1,0.1,1.7c0.1,0.6,0.3,1.1,0.5,1.6c0.3,0.5,0.7,0.8,1.2,1.1s1.2,0.4,2.1,0.4c0.7,0,1.4-0.2,2.2-0.7
			c0.8-0.5,1.6-1.1,2.4-1.8s1.6-1.6,2.4-2.5s1.5-1.8,2.2-2.7s1.3-1.7,1.8-2.5s0.9-1.4,1.3-1.8c0.1-0.1,0.1-0.2,0.1-0.3
			C120.3,133.1,120.3,133.1,120.2,133z M57.3,134.6c0.5-0.7,0.9-1.3,1.4-1.8s1-0.9,1.5-1.2s1.1-0.4,1.6-0.4c0.3,0,0.5,0.1,0.6,0.4
			c0.1,0.3,0.1,0.6-0.1,1c-0.1,0.4-0.4,0.8-0.7,1.3s-0.8,0.9-1.3,1.3c-0.5,0.4-1.2,0.8-1.9,1c-0.7,0.3-1.5,0.4-2.4,0.4
			C56.4,136,56.9,135.3,57.3,134.6z M96.6,140.3c-0.5,0.7-1,1.4-1.5,1.9c-0.5,0.6-1,1.1-1.5,1.4c-0.5,0.4-1,0.6-1.4,0.6
			c-0.6,0-0.9-0.3-1.1-0.9c-0.1-0.6-0.1-1.4,0.1-2.3c0.2-0.9,0.6-1.9,1.1-3s1.1-2.1,1.8-3c0.7-0.9,1.4-1.7,2.3-2.3
			c0.8-0.6,1.7-0.9,2.5-0.9c0.4,0,0.6,0.1,0.8,0.4c0.2,0.3,0.2,0.6,0.2,1c0,0.6-0.1,1.1-0.4,1.6c-0.2,0.5-0.5,1-0.8,1.4
			s-0.5,0.7-0.8,1c-0.2,0.3-0.4,0.4-0.4,0.4s0.1,0.1,0.2,0.3s0.2,0.3,0.4,0.5C97.7,138.9,97.2,139.6,96.6,140.3z M111.4,129.6
			c0.7-1.1,1.3-2.2,2.1-3.2c0.7-1,1.4-1.9,2.1-2.6c0.7-0.8,1.3-1.4,1.9-1.8s1.1-0.7,1.5-0.7c0.3,0,0.5,0.2,0.4,0.7s-0.3,1.1-0.7,1.9
			c-0.4,0.8-0.9,1.7-1.6,2.7s-1.5,2.1-2.4,3.2c-0.9,1.1-1.9,2.2-3.1,3.4c-1.1,1.1-2.3,2.2-3.6,3.1c0.4-1.1,0.9-2.2,1.4-3.4
			C110.1,131.9,110.7,130.7,111.4,129.6z"/>
		<path class="st7" d="M43.2,155.7c-5.5-1.2-8.9-8.3-11.6-14.8c0.8-1,1.6-2,2.3-3.1c2.6-3.7,5-7.9,7-12.7c-0.7,3-1.4,5.8-2,8.3
			c-0.2,1.1-0.5,2.1-0.7,3.1s-0.4,2-0.6,2.9c-0.2,0.9-0.3,1.6-0.4,2.2c-0.1,0.6-0.2,1-0.2,1.2c0,0.8,0.1,1.2,0.3,1.5
			c0.2,0.2,0.5,0.3,0.8,0.3c0.1,0,0.4-0.3,0.8-1c0.5-0.6,1-1.5,1.6-2.4c0.6-1,1.3-2,2.1-3.2c0.7-1.1,1.4-2.2,2.1-3.2
			c0.7-1,1.3-1.8,1.8-2.4c0.5-0.6,0.9-1,1.1-1c-0.5,1-1,2-1.4,3.2c-0.3,1-0.7,2.1-0.9,3.4c-0.3,1.3-0.4,2.6-0.4,3.9
			c0,1.1,0.1,2,0.4,2.7c0.3,0.8,0.6,1.4,1,1.9s0.9,0.9,1.4,1.2s1,0.6,1.5,0.7c0.5,0.2,1,0.3,1.4,0.3c0.4,0.1,0.8,0.1,1.1,0.1
			c0.5,0,0.8-0.1,1.2-0.3c0.3-0.2,0.5-0.4,0.5-0.5s-0.1-0.1-0.4-0.1c-0.3,0-0.6-0.1-1-0.2c-0.4-0.1-0.8-0.3-1.3-0.6
			s-0.9-0.7-1.3-1.2c-0.4-0.5-0.8-1.2-1-2c-0.3-0.8-0.4-1.8-0.4-3.1c0-1.6,0.2-3.1,0.5-4.5s0.8-2.7,1.3-3.9s1.1-2.3,1.7-3.2
			c0.6-1,1.2-1.8,1.7-2.5s1-1.2,1.3-1.6s0.5-0.6,0.5-0.7c0-0.2-0.1-0.4-0.4-0.6c-0.2-0.2-0.6-0.3-1-0.3c-0.3,0-0.8,0.2-1.3,0.6
			s-1.1,1-1.8,1.6c-0.6,0.7-1.3,1.4-2,2.3c-0.7,0.9-1.4,1.7-2.1,2.6c-1.6,2.1-3.3,4.5-5.2,7.1c0-0.4,0.1-1,0.2-1.7
			c0.1-0.7,0.3-1.5,0.5-2.4s0.4-1.9,0.7-2.9s0.5-2,0.8-3s0.5-2,0.8-2.9s0.5-1.7,0.7-2.5c0.2-0.7,0.4-1.3,0.5-1.7
			c0.1-0.4,0.2-0.7,0.2-0.7c0-0.1-0.1-0.1-0.2-0.2c-0.1-0.1-0.3-0.1-0.5-0.2s-0.4-0.1-0.7-0.2c-0.2,0-0.5-0.1-0.7-0.1
			c-0.3,0-0.6,0.3-1,0.8c-0.4,0.6-0.9,1.3-1.5,2.3s-1.2,2.1-1.9,3.3c-0.7,1.3-1.4,2.6-2.3,4.1c-0.8,1.4-1.7,2.9-2.6,4.4
			c-0.9,1.5-1.9,3-3,4.4c-0.1,0.2-0.2,0.3-0.4,0.5c-1.5-3.7-2.9-7-4.3-8.5c-4-4.2-11.9-4.2-16.8,0l0,0c-0.3,0.3-0.6,0.6-0.9,0.9
			c-0.8,0.8-1.5,1.7-2.1,2.6c-0.6,0.9-1.1,1.9-1.4,2.9c-0.4,1-0.5,2-0.5,3c0,1.5,0.2,2.9,0.7,4.2s1.2,2.3,2.1,3.2s2.1,1.6,3.4,2.1
			c1.4,0.5,2.9,0.7,4.6,0.7c1.9,0,3.6-0.4,5.3-1.1c1.7-0.7,3.3-1.7,4.9-2.9c0.9-0.7,1.8-1.5,2.7-2.3c2.4,5.2,4.3,9.4,7.6,11.4
			c7.8,4.8,18.6,1.5,17.4-3.2C53.7,152.5,52.4,157.8,43.2,155.7z M27.9,142.8c-1.2,1.3-2.4,2.4-3.6,3.3c-1.2,1-2.5,1.7-3.9,2.3
			c-1.3,0.6-2.7,0.8-4.1,0.8s-2.6-0.2-3.7-0.6c-1.1-0.4-2-1-2.7-1.7s-1.3-1.5-1.7-2.5c-0.4-0.9-0.6-1.9-0.6-2.9
			c0-0.9,0.1-1.8,0.4-2.7s0.6-1.8,1.1-2.6s1-1.6,1.6-2.3s1.3-1.3,2-1.8c0.5-0.3,0.9-0.6,1.4-0.9c3-1.2,7.3-1.1,11.1,6
			C26.2,139.2,27.1,141.1,27.9,142.8L27.9,142.8z"/>
	</g>
</g>
</svg>
